<svg width="124" height="38" viewBox="0 0 124 38" fill="none" xmlns="http://www.w3.org/2000/svg">
<path d="M13.1288 15.4183C12.6828 16.6633 12.4568 17.9771 12.4657 19.3011C12.4552 20.6971 12.7075 22.0826 13.2089 23.3851V23.386C13.6853 24.6391 14.3992 25.7879 15.3104 26.7698C16.2446 27.779 17.3786 28.5816 18.6405 29.1253C19.8991 29.6675 21.257 29.9397 22.6268 29.9261V29.927C22.6285 29.927 22.6301 29.9261 22.6317 29.9261C22.6337 29.9261 22.6356 29.9261 22.6376 29.9261C23.7844 29.9252 24.9229 29.7356 26.0087 29.3655L26.0096 29.3665C27.0493 29.0221 28.0266 28.5117 28.9061 27.8587L32.996 33.7571C32.9501 33.8164 32.8938 33.8669 32.829 33.9046L32.8007 33.9212L32.7733 33.9397C31.3268 34.9125 29.7501 35.6742 28.0907 36.2034C26.5973 36.6705 25.0494 36.9344 23.4882 36.9886L22.8182 36.9993H22.8055C21.2202 37.0128 19.6405 36.8049 18.1122 36.3821H18.1102C15.1636 35.5755 12.4781 34.0084 10.3221 31.8372L10.3192 31.8343L9.92468 31.427C9.1486 30.6018 8.45171 29.705 7.84363 28.7483L7.54675 28.2649C6.87 27.1049 6.32814 25.8715 5.93054 24.5892L5.76843 24.0364C5.73795 23.9098 5.71006 23.7965 5.6825 23.6849C7.23434 19.9949 9.78847 17.3278 13.1288 15.4183Z" stroke="#2563EB" stroke-width="2"/>
<path d="M17.2949 1.59766C20.8245 0.715973 24.5264 0.811978 28.0059 1.875H28.0068C29.7413 2.42511 31.3883 3.223 32.8955 4.24512L32.9385 4.27441L32.9844 4.29883C33.0537 4.33602 33.1137 4.3884 33.1611 4.45117L28.8564 10.6445L28.8408 10.6328L28.7842 10.6006L28.1504 10.2578C21.6005 6.87782 14.9855 8.50391 9.77246 12.5635C6.10749 15.4175 3.08591 19.5001 1.16309 23.9961C1.75378 17.2301 3.95869 11.0968 7.95996 6.88477C10.537 4.30672 13.7638 2.47978 17.2949 1.59766Z" stroke="#1F2937" stroke-width="2"/>
<path d="M40.9537 20.8265V13.7189H44.3763V26.0968H41.0903V23.8484H40.9617C40.6832 24.5737 40.2199 25.1566 39.5718 25.5971C38.929 26.0377 38.1444 26.2579 37.2177 26.2579C36.3929 26.2579 35.6671 26.0699 35.0405 25.6938C34.4138 25.3178 33.9237 24.7832 33.5702 24.0902C33.222 23.3972 33.0453 22.5671 33.0399 21.6001V13.7189H36.4625V20.9877C36.4679 21.7183 36.6634 22.2958 37.049 22.7202C37.4347 23.1447 37.9515 23.3569 38.5996 23.3569C39.0121 23.3569 39.3977 23.2629 39.7566 23.0748C40.1154 22.8814 40.4047 22.5967 40.6243 22.2206C40.8492 21.8445 40.959 21.3798 40.9537 20.8265Z" fill="black"/>
<path d="M57.3818 17.2485L54.2484 17.4419C54.1948 17.1733 54.0797 16.9315 53.9029 16.7166C53.7262 16.4964 53.4932 16.3218 53.204 16.1928C52.9201 16.0585 52.58 15.9914 52.1836 15.9914C51.6533 15.9914 51.2061 16.1042 50.8419 16.3298C50.4777 16.5501 50.2955 16.8456 50.2955 17.2163C50.2955 17.5117 50.4134 17.7616 50.6491 17.9657C50.8847 18.1699 51.2891 18.3337 51.8622 18.4573L54.0958 18.9086C55.2955 19.1557 56.19 19.5532 56.7792 20.1012C57.3684 20.6492 57.663 21.3691 57.663 22.2609C57.663 23.0721 57.4246 23.784 56.9479 24.3964C56.4766 25.0089 55.8285 25.487 55.0036 25.8308C54.1841 26.1693 53.2388 26.3385 52.1675 26.3385C50.5339 26.3385 49.2323 25.9974 48.2629 25.3151C47.2988 24.6274 46.7337 23.6926 46.5676 22.5107L49.934 22.3334C50.0358 22.8331 50.2822 23.2145 50.6732 23.4777C51.0642 23.7356 51.565 23.8646 52.1756 23.8646C52.7755 23.8646 53.2575 23.749 53.6217 23.518C53.9913 23.2817 54.1788 22.9781 54.1841 22.6074C54.1788 22.2958 54.0476 22.0406 53.7905 21.8419C53.5334 21.6377 53.137 21.4819 52.6014 21.3745L50.4643 20.9474C49.2591 20.7056 48.362 20.2866 47.7728 19.6902C47.189 19.0939 46.897 18.3337 46.897 17.4097C46.897 16.6146 47.1113 15.9296 47.5398 15.3547C47.9736 14.7799 48.5816 14.3367 49.3636 14.0251C50.1509 13.7135 51.0722 13.5577 52.1274 13.5577C53.686 13.5577 54.9126 13.8881 55.8071 14.5489C56.7069 15.2097 57.2318 16.1096 57.3818 17.2485Z" fill="black"/>
<path d="M66.3822 13.7189V16.2976H58.9505V13.7189H66.3822ZM60.6377 10.7533H64.0603V22.2931C64.0603 22.6101 64.1085 22.8572 64.2049 23.0345C64.3013 23.2064 64.4352 23.3273 64.6066 23.3972C64.7834 23.467 64.9869 23.5019 65.2172 23.5019C65.3779 23.5019 65.5386 23.4885 65.6993 23.4616C65.86 23.4294 65.9831 23.4052 66.0688 23.3891L66.6071 25.9437C66.4357 25.9974 66.1947 26.0592 65.8841 26.129C65.5734 26.2042 65.1958 26.2499 64.7512 26.266C63.9264 26.2982 63.2033 26.1881 62.582 25.9356C61.966 25.6831 61.4866 25.2909 61.1438 24.7591C60.801 24.2272 60.6323 23.5556 60.6377 22.7444V10.7533Z" fill="black"/>
<path d="M74.0549 26.3385C72.8069 26.3385 71.7277 26.0726 70.8171 25.5407C69.9119 25.0035 69.2129 24.2567 68.7202 23.3005C68.2274 22.3388 67.981 21.224 67.981 19.9562C67.981 18.6775 68.2274 17.5601 68.7202 16.6038C69.2129 15.6422 69.9119 14.8954 70.8171 14.3635C71.7277 13.8263 72.8069 13.5577 74.0549 13.5577C75.3029 13.5577 76.3795 13.8263 77.2847 14.3635C78.1953 14.8954 78.8969 15.6422 79.3897 16.6038C79.8825 17.5601 80.1288 18.6775 80.1288 19.9562C80.1288 21.224 79.8825 22.3388 79.3897 23.3005C78.8969 24.2567 78.1953 25.0035 77.2847 25.5407C76.3795 26.0726 75.3029 26.3385 74.0549 26.3385ZM74.071 23.6792C74.6387 23.6792 75.1128 23.518 75.4931 23.1957C75.8733 22.868 76.1599 22.4221 76.3527 21.858C76.5509 21.2939 76.65 20.6519 76.65 19.932C76.65 19.2121 76.5509 18.5701 76.3527 18.006C76.1599 17.4419 75.8733 16.996 75.4931 16.6683C75.1128 16.3406 74.6387 16.1767 74.071 16.1767C73.4979 16.1767 73.0158 16.3406 72.6248 16.6683C72.2392 16.996 71.9473 17.4419 71.7491 18.006C71.5563 18.5701 71.4599 19.2121 71.4599 19.932C71.4599 20.6519 71.5563 21.2939 71.7491 21.858C71.9473 22.4221 72.2392 22.868 72.6248 23.1957C73.0158 23.518 73.4979 23.6792 74.071 23.6792Z" fill="black"/>
<path d="M82.3543 26.0968V13.7189H85.6163V15.9027H85.7609C86.018 15.1774 86.4465 14.6053 87.0464 14.1862C87.6462 13.7672 88.364 13.5577 89.1995 13.5577C90.0458 13.5577 90.7662 13.7699 91.3608 14.1943C91.9553 14.6134 92.3517 15.1828 92.5498 15.9027H92.6784C92.9301 15.1936 93.3854 14.6268 94.0442 14.2024C94.7084 13.7726 95.4931 13.5577 96.3983 13.5577C97.5498 13.5577 98.4845 13.9257 99.2022 14.6617C99.9253 15.3923 100.287 16.4292 100.287 17.7723V26.0968H96.8723V18.4492C96.8723 17.7616 96.6902 17.2458 96.326 16.902C95.9617 16.5581 95.5065 16.3862 94.9601 16.3862C94.3388 16.3862 93.8541 16.585 93.5059 16.9826C93.1578 17.3747 92.9837 17.8932 92.9837 18.5379V26.0968H89.6655V18.3767C89.6655 17.7696 89.4915 17.2861 89.1433 16.9262C88.8005 16.5662 88.3479 16.3862 87.7855 16.3862C87.4052 16.3862 87.0624 16.4829 86.7571 16.6763C86.4572 16.8644 86.2188 17.1303 86.0421 17.4741C85.8653 17.8126 85.7769 18.2101 85.7769 18.6668V26.0968H82.3543Z" fill="black"/>
<path d="M108.614 26.3385C107.345 26.3385 106.252 26.0807 105.336 25.5649C104.426 25.0438 103.724 24.3078 103.231 23.3569C102.739 22.4006 102.492 21.2697 102.492 19.9642C102.492 18.691 102.739 17.5735 103.231 16.6119C103.724 15.6502 104.418 14.9008 105.312 14.3635C106.212 13.8263 107.267 13.5577 108.478 13.5577C109.292 13.5577 110.05 13.6893 110.752 13.9526C111.459 14.2104 112.074 14.5999 112.599 15.121C113.13 15.6422 113.542 16.2976 113.837 17.0873C114.131 17.8717 114.279 18.7904 114.279 19.8433V20.7862H103.858V18.6587H111.057C111.057 18.1645 110.95 17.7266 110.735 17.3452C110.521 16.9638 110.224 16.6656 109.844 16.4507C109.469 16.2304 109.032 16.1203 108.534 16.1203C108.014 16.1203 107.554 16.2412 107.152 16.4829C106.756 16.7193 106.445 17.039 106.22 17.4419C105.995 17.8395 105.88 18.2827 105.875 18.7716V20.7943C105.875 21.4067 105.987 21.9359 106.212 22.3818C106.442 22.8277 106.767 23.1715 107.184 23.4133C107.602 23.655 108.098 23.7759 108.671 23.7759C109.051 23.7759 109.399 23.7222 109.715 23.6147C110.031 23.5073 110.302 23.3461 110.527 23.1312C110.752 22.9163 110.923 22.6531 111.041 22.3415L114.206 22.551C114.046 23.3139 113.716 23.9801 113.218 24.5495C112.725 25.1136 112.088 25.5542 111.306 25.8711C110.529 26.1827 109.632 26.3385 108.614 26.3385Z" fill="black"/>
<path d="M116.512 26.0968V13.7189H119.83V15.8785H119.959C120.184 15.1103 120.561 14.5301 121.092 14.1379C121.622 13.7403 122.232 13.5416 122.923 13.5416C123.095 13.5416 123.28 13.5523 123.478 13.5738C123.676 13.5953 123.85 13.6248 124 13.6624V16.7086C123.839 16.6602 123.617 16.6172 123.333 16.5796C123.049 16.542 122.79 16.5232 122.554 16.5232C122.05 16.5232 121.6 16.6334 121.204 16.8536C120.813 17.0685 120.502 17.3694 120.272 17.7562C120.047 18.143 119.935 18.5889 119.935 19.0939V26.0968H116.512Z" fill="black"/>
</svg>
